PathFileType	4	(X/Y/Z)	S:\OneDrive - The University of Tokyo\ìåëÂéˆã∆\ÉoÉCÉÅÉJ\ë™íË\hirabayashi_2\Trimmed\Trimmed_BarRL0kg1.trc
DataRate	CameraRate	NumFrames	NumMarkers	Units	OrigDataRate	OrigDataStartFrame	OrigNumFrames
200.00	200.00	       26	12	mm	200.00	67	       234
Frame#	Time	BarR0			BarR50			BarR100			BarR130			BarR180			BarR230			BarL0			BarL50			BarL100			BarL130			BarL180			BarL230			
		X1	Y1	Z1	X2	Y2	Z2	X3	Y3	Z3	X4	Y4	Z4	X5	Y5	Z5	X6	Y6	Z6	X7	Y7	Z7	X8	Y8	Z8	X9	Y9	Z9	X10	Y10	Z10	X11	Y11	Z11	X12	Y12	Z12	

67	0.330	-575.99384	2755.47192	1664.47827	-604.86993	2306.34521	1662.46484	-637.32965	1851.94507	1662.14783	-660.74445	1349.45239	1662.10938	-690.07892	902.84375	1662.89429	-713.78522	454.76199	1664.13232	-1113.90393	2808.34546	1664.64087	-1140.89966	2356.57544	1668.00745	-1171.51111	1906.17566	1668.90845	-1199.12549	1403.99292	1669.08936	-1226.87183	952.70770	1668.40234	-1244.76624	506.50751	1667.62292	
68	0.335	-576.00867	2755.46875	1664.48999	-604.89410	2306.34644	1662.47119	-637.33466	1851.93835	1662.10901	-660.75079	1349.46350	1662.12952	-690.08234	902.84021	1662.88354	-713.79950	454.76782	1664.12805	-1113.92676	2808.29346	1664.62244	-1140.91235	2356.59521	1668.01306	-1171.49670	1906.13770	1668.92224	-1199.11096	1404.06641	1669.08630	-1226.84521	952.73291	1668.41162	-1244.75342	506.49127	1667.62170	
69	0.340	-576.01349	2755.47925	1664.49097	-604.88330	2306.36035	1662.48364	-637.29492	1851.97681	1662.13025	-660.74481	1349.44958	1662.12000	-690.09705	902.85162	1662.87585	-713.77454	454.75952	1664.12402	-1113.92102	2808.32129	1664.62512	-1140.92603	2356.57202	1668.00867	-1171.48853	1906.14087	1668.93140	-1199.11401	1404.03699	1669.08508	-1226.85559	952.71539	1668.40527	-1244.75269	506.51639	1667.62244	
70	0.345	-575.99707	2755.47339	1664.47913	-604.85876	2306.38110	1662.47107	-637.35736	1851.98706	1662.14600	-660.73572	1349.43945	1662.13330	-690.07245	902.85114	1662.89771	-713.79541	454.80212	1664.13660	-1113.92554	2808.32031	1664.64294	-1140.90674	2356.58521	1668.00647	-1171.50281	1906.14636	1668.91150	-1199.10193	1404.02917	1669.10034	-1226.85205	952.73444	1668.40186	-1244.75427	506.50388	1667.63391	
71	0.350	-575.99847	2755.45532	1664.48816	-604.88586	2306.36206	1662.46960	-637.32623	1851.94751	1662.13245	-660.74176	1349.43811	1662.12158	-690.09631	902.83447	1662.90259	-713.77606	454.80380	1664.13171	-1113.89734	2808.36035	1664.63232	-1140.91907	2356.55591	1668.01685	-1171.48364	1906.15002	1668.92578	-1199.12573	1404.02771	1669.10718	-1226.86938	952.72223	1668.39990	-1244.74194	506.50974	1667.64050	
72	0.355	-576.00159	2755.46118	1664.49939	-604.87360	2306.36523	1662.48108	-637.32489	1851.95190	1662.11755	-660.73413	1349.46851	1662.13794	-690.08368	902.83258	1662.90564	-713.80829	454.78760	1664.13025	-1113.89185	2808.34863	1664.63330	-1140.91138	2356.57910	1668.01123	-1171.50916	1906.13513	1668.92480	-1199.12341	1404.04468	1669.08936	-1226.86169	952.71906	1668.41187	-1244.74622	506.50836	1667.62427	
73	0.360	-576.00195	2755.46997	1664.47314	-604.88513	2306.34595	1662.47412	-637.29553	1851.94080	1662.11755	-660.74731	1349.41150	1662.11719	-690.08905	902.80945	1662.88269	-713.78296	454.75201	1664.11853	-1113.89355	2808.36035	1664.64148	-1140.90076	2356.58105	1668.00574	-1171.51135	1906.15332	1668.92749	-1199.11121	1404.06421	1669.09070	-1226.85217	952.72491	1668.40405	-1244.73669	506.49182	1667.62354	
74	0.365	-575.99573	2755.45532	1664.46802	-604.92120	2306.33545	1662.46851	-637.31171	1851.94531	1662.13147	-660.75311	1349.43896	1662.09766	-690.10773	902.80377	1662.85913	-713.78857	454.76962	1664.13574	-1113.92285	2808.34839	1664.62817	-1140.90930	2356.57031	1667.99951	-1171.50806	1906.15894	1668.92126	-1199.11975	1404.03296	1669.09778	-1226.85986	952.72125	1668.40332	-1244.76196	506.50000	1667.61902	
75	0.370	-575.99750	2755.45874	1664.49670	-604.86615	2306.33984	1662.45837	-637.30823	1851.93994	1662.14063	-660.74152	1349.44031	1662.11426	-690.10626	902.80402	1662.87866	-713.78448	454.77432	1664.12378	-1113.89087	2808.34131	1664.64026	-1140.93030	2356.57373	1667.99976	-1171.50366	1906.14722	1668.90210	-1199.11597	1404.04871	1669.08948	-1226.85144	952.73254	1668.39771	-1244.73608	506.50137	1667.61462	
76	0.375	-575.99512	2755.47144	1664.48926	-604.88593	2306.36035	1662.47253	-637.32947	1851.98499	1662.13013	-660.75238	1349.43091	1662.13611	-690.08636	902.82141	1662.89563	-713.78998	454.76422	1664.12708	-1113.91833	2808.29858	1664.63306	-1140.92432	2356.58276	1667.99976	-1171.49512	1906.14746	1668.92981	-1199.12354	1404.01062	1669.09741	-1226.85999	952.72504	1668.40125	-1244.75256	506.51361	1667.62695	
77	0.380	-575.99042	2755.47021	1664.49817	-604.88660	2306.36621	1662.48999	-637.32849	1851.99316	1662.11658	-660.75714	1349.42798	1662.13354	-690.08148	902.81390	1662.88281	-713.80182	454.77451	1664.13013	-1113.93188	2808.34082	1664.62671	-1140.92261	2356.57007	1668.00610	-1171.48938	1906.15137	1668.92822	-1199.12415	1404.02258	1669.10242	-1226.86560	952.71967	1668.41235	-1244.76526	506.52631	1667.63745	
78	0.385	-575.99866	2755.48340	1664.49890	-604.87000	2306.33521	1662.47546	-637.31873	1851.92236	1662.13354	-660.75018	1349.44312	1662.13721	-690.09558	902.80939	1662.89661	-713.78363	454.77188	1664.13574	-1113.93604	2808.33154	1664.62256	-1140.90454	2356.58081	1668.01563	-1171.51733	1906.14282	1668.93896	-1199.10181	1404.04980	1669.11804	-1226.85925	952.73083	1668.40369	-1244.76965	506.53656	1667.64075	
79	0.390	-576.00311	2755.47095	1664.48792	-604.87494	2306.35767	1662.47302	-637.34845	1851.97534	1662.11548	-660.73102	1349.45215	1662.12207	-690.08911	902.85327	1662.89929	-713.79059	454.77820	1664.13574	-1113.92322	2808.30884	1664.62878	-1140.90613	2356.55762	1668.01208	-1171.49475	1906.13245	1668.91882	-1199.12305	1404.02893	1669.08667	-1226.85706	952.71881	1668.39270	-1244.75134	506.50314	1667.63025	
80	0.395	-575.99579	2755.45435	1664.47729	-604.89789	2306.33154	1662.47485	-637.33795	1851.97937	1662.11255	-660.74371	1349.43799	1662.11414	-690.09302	902.85620	1662.88208	-713.79102	454.75879	1664.12622	-1113.89685	2808.30078	1664.62378	-1140.91504	2356.56250	1667.99792	-1171.49084	1906.17236	1668.91467	-1199.11145	1404.01013	1669.09045	-1226.85156	952.72565	1668.39600	-1244.76245	506.52145	1667.62268	
81	0.400	-575.98914	2755.46216	1664.47742	-604.89056	2306.36206	1662.47156	-637.32068	1851.93530	1662.11926	-660.75061	1349.44214	1662.10913	-690.07874	902.81927	1662.88416	-713.79462	454.76385	1664.12427	-1113.91284	2808.33276	1664.64185	-1140.91931	2356.56519	1667.99988	-1171.49683	1906.14063	1668.91321	-1199.12756	1404.05237	1669.07373	-1226.86377	952.70288	1668.39221	-1244.76025	506.51566	1667.61829	
82	0.405	-576.00958	2755.48193	1664.49719	-604.86890	2306.35815	1662.45947	-637.30713	1851.96375	1662.12744	-660.73108	1349.46045	1662.11572	-690.08911	902.82703	1662.88684	-713.78143	454.76743	1664.13013	-1113.95935	2808.34839	1664.64258	-1140.92676	2356.54736	1668.01465	-1171.49902	1906.13843	1668.90417	-1199.11609	1404.04089	1669.08765	-1226.85779	952.72821	1668.40222	-1244.76111	506.50735	1667.62634	
83	0.410	-576.00781	2755.48804	1664.49854	-604.86011	2306.36279	1662.46692	-637.28143	1851.95703	1662.13416	-660.77045	1349.46350	1662.13477	-690.09430	902.80981	1662.89929	-713.78992	454.75656	1664.13000	-1113.90271	2808.34985	1664.65686	-1140.91101	2356.58960	1668.01428	-1171.49561	1906.17822	1668.93018	-1199.13159	1404.02478	1669.07971	-1226.85144	952.73126	1668.40369	-1244.75952	506.52448	1667.62378	
84	0.415	-575.99048	2755.46460	1664.48633	-604.89844	2306.34717	1662.46729	-637.30511	1851.96155	1662.11670	-660.75861	1349.45715	1662.13647	-690.08624	902.84351	1662.89941	-713.79633	454.75064	1664.12830	-1113.92163	2808.33667	1664.63867	-1140.88879	2356.56055	1668.03418	-1171.53394	1906.16638	1668.92310	-1199.13062	1404.02942	1669.08740	-1226.85400	952.72125	1668.39233	-1244.74463	506.50705	1667.63574	
85	0.420	-576.00391	2755.48633	1664.48962	-604.86163	2306.35742	1662.45483	-637.31085	1851.93860	1662.11780	-660.74915	1349.41992	1662.13367	-690.09094	902.82813	1662.89893	-713.79529	454.76077	1664.12195	-1113.89490	2808.32617	1664.62427	-1140.91675	2356.56055	1668.01538	-1171.49988	1906.15527	1668.92383	-1199.11621	1404.01563	1669.08606	-1226.86218	952.72632	1668.39795	-1244.74219	506.51236	1667.62903	
86	0.425	-575.98761	2755.46924	1664.49487	-604.87067	2306.35229	1662.47253	-637.29626	1851.94104	1662.12183	-660.78107	1349.46057	1662.10876	-690.08679	902.82990	1662.88025	-713.78644	454.75281	1664.12354	-1113.89319	2808.35596	1664.62170	-1140.91309	2356.58350	1668.00818	-1171.50391	1906.11963	1668.92554	-1199.11816	1404.04126	1669.07544	-1226.86926	952.71710	1668.39319	-1244.75037	506.50641	1667.61841	
87	0.430	-575.99554	2755.46460	1664.48096	-604.88342	2306.33667	1662.46033	-637.38000	1851.95178	1662.10828	-660.74872	1349.44348	1662.12402	-690.09698	902.82178	1662.87683	-713.77747	454.75427	1664.12122	-1113.92444	2808.33740	1664.63489	-1140.93176	2356.57593	1667.99609	-1171.50122	1906.14282	1668.90308	-1199.12939	1404.03662	1669.08423	-1226.86804	952.72351	1668.40881	-1244.75708	506.52271	1667.60938	
88	0.435	-575.99243	2755.46729	1664.48047	-604.89557	2306.35669	1662.47253	-637.33722	1851.97852	1662.12048	-660.75659	1349.42834	1662.10388	-690.08472	902.83801	1662.88611	-713.77655	454.78577	1664.13342	-1113.93140	2808.31714	1664.62964	-1140.89136	2356.54150	1667.98828	-1171.48987	1906.13660	1668.91870	-1199.12085	1404.02747	1669.07935	-1226.85815	952.72968	1668.39563	-1244.76233	506.48624	1667.62207	
89	0.440	-575.98004	2755.47656	1664.49548	-604.87677	2306.34375	1662.46631	-637.34332	1851.96545	1662.12915	-660.75928	1349.44055	1662.13318	-690.09790	902.82562	1662.89185	-713.78387	454.76331	1664.12598	-1113.95605	2808.35303	1664.64661	-1140.90857	2356.57202	1668.00073	-1171.47815	1906.16443	1668.91748	-1199.11035	1404.04053	1669.10754	-1226.86023	952.71765	1668.40820	-1244.75415	506.49292	1667.62952	
90	0.445	-575.99500	2755.46948	1664.48926	-604.90790	2306.35474	1662.46387	-637.32825	1851.95068	1662.12244	-660.75140	1349.45935	1662.11890	-690.10022	902.83160	1662.88428	-713.77362	454.77286	1664.13184	-1113.89526	2808.33032	1664.64856	-1140.91357	2356.56567	1667.99304	-1171.52112	1906.13599	1668.92432	-1199.11926	1404.04944	1669.09558	-1226.86743	952.72174	1668.39160	-1244.75659	506.50153	1667.62708	
91	0.450	-575.99677	2755.48071	1664.48547	-604.88715	2306.33594	1662.48364	-637.30914	1851.95886	1662.13135	-660.75043	1349.42725	1662.11462	-690.09167	902.81921	1662.89075	-713.78156	454.77090	1664.12024	-1113.89282	2808.35522	1664.63354	-1140.91150	2356.55640	1668.00037	-1171.51782	1906.10168	1668.92346	-1199.12292	1404.03040	1669.07971	-1226.84863	952.73956	1668.40564	-1244.74756	506.53143	1667.62659	
92	0.455	-576.00275	2755.48242	1664.48926	-604.89502	2306.32739	1662.45911	-637.28534	1851.95215	1662.12158	-660.75269	1349.45032	1662.12390	-690.09070	902.80328	1662.89795	-713.79150	454.77362	1664.12805	-1113.93555	2808.33105	1664.63916	-1140.92859	2356.56470	1668.00732	-1171.51428	1906.13330	1668.92004	-1199.11914	1404.02783	1669.08679	-1226.86438	952.71130	1668.39917	-1244.76392	506.53220	1667.61743	
